<svg xmlns="http://www.w3.org/2000/svg" viewBox="0 0 234.39 234.39"><defs><style>.cls-1{fill:none;stroke:#000;stroke-miterlimit:10;}</style></defs><title>Asset 1</title><g id="Layer_2" data-name="Layer 2"><g id="Layer_1-2" data-name="Layer 1"><circle class="cls-1" cx="117.19" cy="117.19" r="116.69"/><path d="M148.22,96.75a11.11,11.11,0,1,1,0-22.22h55.55a11.1,11.1,0,0,1,11.12,11.11V141.2a11.12,11.12,0,0,1-22.23,0V112.48l-58.82,58.79a11.08,11.08,0,0,1-15.69,0L81.24,134.7,33.85,182.38a11.11,11.11,0,0,1-15.71-15.7l55.57-55.55a11.08,11.08,0,0,1,15.69,0L126,147.69l50.93-51.25Z"/></g></g></svg>